<svg width="247" height="55" viewBox="0 0 247 55" fill="none" xmlns="http://www.w3.org/2000/svg">
<path d="M67.7324 11.1299H76.4098V23.1336C78.3604 20.44 82.772 15.0166 85.707 11.1299H96.0615L85.1054 23.2421L96.4443 40.7053H86.1992L79.0531 28.8462L76.4098 31.5398V40.7053H67.7324V11.1299Z" fill="white"/>
<path d="M98.6504 9.59375H107.091V15.4329H98.6504V9.59375ZM98.6504 18.1988H107.091V40.7058H98.6504V18.1988Z" fill="white"/>
<path d="M112.031 24.0373C112.031 22.0849 112.013 19.9878 111.977 18.1981H120.216C120.344 18.7766 120.435 20.0059 120.472 20.6748C121.347 19.3912 123.224 17.6558 126.925 17.6558C131.464 17.6558 134.345 20.6929 134.345 26.2066V40.7051H125.922V27.1647C125.922 24.9954 125.284 23.7842 123.352 23.7842C121.584 23.7842 120.49 24.7061 120.49 27.8698V40.7051H112.049V24.0373H112.031Z" fill="white"/>
<path d="M136.934 18.1985H140.197V12.3594H148.546V18.1985H152.538V23.8388H148.546V33.4924C148.546 34.8844 148.983 35.4087 150.77 35.4087C151.08 35.4087 151.499 35.4087 151.955 35.3725V40.5428C150.642 40.9767 148.437 41.067 147.033 41.067C141.673 41.067 140.16 38.4638 140.16 34.2155V23.8388H136.934V18.1985Z" fill="white"/>
<path d="M162.327 33.7632C162.692 35.1913 163.895 35.9867 165.736 35.9867C167.413 35.9867 168.124 35.4806 168.124 34.4501C168.124 33.3474 167.122 32.9497 164.132 32.2808C156.311 30.5453 155.181 27.9782 155.181 24.7965C155.181 21.5063 157.496 17.6558 165.244 17.6558C172.645 17.6558 175.307 21.416 175.525 24.5977H167.96C167.796 23.8022 167.286 22.6633 165.007 22.6633C163.494 22.6633 162.947 23.278 162.947 24.0553C162.947 24.9412 163.694 25.3208 167.377 26.1343C174.614 27.7432 176.182 30.238 176.182 33.7812C176.182 37.7945 173.228 41.2655 165.463 41.2655C158.061 41.2655 154.944 37.7584 154.488 33.7632H162.327Z" fill="white"/>
<path d="M201.575 33.5102C201.575 35.4988 201.575 38.5539 201.611 40.7052H193.335C193.226 40.1629 193.189 38.9336 193.153 38.337C191.694 40.4702 189.744 41.2656 186.882 41.2656C182.014 41.2656 179.426 38.337 179.426 32.986V18.1802H187.848V31.594C187.848 33.6368 188.431 35.083 190.345 35.083C192.332 35.083 193.135 33.9802 193.135 30.6358V18.1802H201.575V33.5102Z" fill="white"/>
<path d="M229.029 37.3431C229.029 44.7188 226.404 49.3829 216.834 49.3829C207.701 49.3829 206.115 44.52 205.859 42.0072H214.209C214.519 43.1641 215.248 44.0138 217.162 44.0138C220.079 44.0138 220.68 42.2783 220.68 38.5905V37.3973C219.532 39.1147 217.782 40.2175 214.573 40.2175C208.612 40.2175 205.367 35.3726 205.367 29.443C205.367 22.4288 209.432 17.6382 215.12 17.6382C218.73 17.6382 220.334 19.229 220.68 20.2595C220.717 19.6991 220.863 18.5602 220.917 18.1805H229.084C229.048 19.8979 229.029 22.0311 229.029 24.6343V37.3431ZM214.008 29.0634C214.008 32.462 215.302 34.4325 217.454 34.4325C220.279 34.4325 220.935 32.3355 220.935 29.0092C220.935 25.484 220.571 23.4231 217.599 23.4231C215.612 23.405 214.008 24.9597 214.008 29.0634Z" fill="white"/>
<path d="M233.732 9.59375H242.173V15.4329H233.732V9.59375ZM233.732 18.1988H242.173V40.7058H233.732V18.1988Z" fill="white"/>
<path d="M52.4384 20.6704C51.2314 15.7493 48.3254 11.205 44.2571 7.87994C39.6747 4.15586 33.9969 2.27166 27.8497 2.42683H27.8274C20.9202 2.84801 14.7283 5.81839 10.3917 10.7838C6.14456 15.6163 4.1104 21.9782 4.64688 28.6727C5.20572 35.7662 8.55873 41.6183 14.5941 46.0517C18.8189 49.1551 23.4908 50.7068 28.498 50.7068C30.0403 50.7068 31.6051 50.5516 33.2145 50.2635C39.4064 49.1329 44.4136 46.096 48.1242 41.2636C52.8185 35.1233 54.2714 28.2072 52.4384 20.6704ZM32.5663 46.1182C32.5663 46.0074 32.5886 45.9187 32.5886 45.8079C32.6557 45.1872 32.7004 44.5443 32.8122 43.9015C32.8569 43.835 32.991 43.7463 33.0357 43.7463C33.9075 43.6577 34.8016 43.5912 35.6734 43.5468C36.0758 43.5247 36.4558 43.5025 36.8581 43.4582C37.0146 43.436 37.1711 43.436 37.3275 43.436C37.797 43.4138 38.3111 43.3695 38.8029 43.2808C39.8758 43.0813 40.8817 43.2808 41.7759 43.5912C39.0935 45.5862 35.964 46.9606 32.678 47.5369H32.6557C32.6333 47.4039 32.6333 47.2487 32.611 47.1157C32.611 46.9606 32.611 46.8276 32.611 46.6724C32.611 46.6059 32.611 46.5172 32.611 46.4507L32.5663 46.1182ZM38.5346 41.0863C37.417 41.1971 36.2546 41.2636 35.1369 41.3301C34.6451 41.3523 34.1757 41.3966 33.6839 41.441C33.6392 41.441 33.5722 41.441 33.5275 41.441C33.371 41.441 33.2145 41.4409 33.0357 41.4853C32.4322 41.6626 31.8957 41.5075 31.3592 41.0198C30.9121 40.5986 30.4651 40.1996 30.018 39.8006C28.7885 38.6922 27.5144 37.5395 26.3744 36.3203C25.592 35.5002 24.8767 34.5692 24.1838 33.6825C23.7143 33.0618 23.2002 32.4189 22.6861 31.8204C21.9708 30.9781 21.2331 30.1579 20.5178 29.382C19.8919 28.6949 19.2437 27.9855 18.6401 27.2762C18.4613 27.0545 18.3272 26.7663 18.2154 26.5225C18.193 26.456 18.1483 26.3895 18.126 26.323C18.4166 24.2393 19.3331 22.9314 20.9202 22.2886C23.0214 21.4462 25.2344 20.7369 27.3579 20.0497C27.6932 19.9389 28.0285 19.828 28.3638 19.7172C28.878 19.5398 29.4368 19.429 29.9509 19.296C30.5545 19.163 31.158 19.0078 31.7392 18.8083C32.3651 18.5867 32.9239 18.7862 33.5498 18.9857L33.5945 19.0078C34.7122 19.3847 35.8299 19.7615 36.9028 20.1384C38.6688 20.7369 40.5017 21.3575 42.29 21.9561C44.9501 22.8206 47.4089 22.4881 49.6443 20.9807C50.1137 22.7541 50.3596 24.6161 50.3596 26.4782C50.3596 32.3081 48.0348 37.7612 43.8324 41.8178C43.7877 41.8621 43.7206 41.9286 43.6759 41.973C42.4465 41.3523 41.0606 41.0419 39.5629 41.0419C39.2276 41.0198 38.8923 41.0419 38.5346 41.0863ZM13.8788 10.9168C15.0636 9.80848 16.3824 8.81096 17.7683 7.99078L17.7907 7.96861L17.813 7.94644H17.8354C20.8531 6.19524 24.2955 5.17555 27.805 5.02038C27.9615 5.02038 28.0956 5.02038 28.2297 4.99821C29.3474 6.79375 30.5098 8.70013 31.5157 10.6952C31.8063 11.2493 31.918 11.9144 32.0074 12.4907C32.0521 12.7345 32.0969 12.9562 32.1416 13.1557C32.0969 13.4882 32.0521 13.7986 32.0074 14.1089C31.8957 14.8847 31.8063 15.5498 31.7168 16.2369C31.6945 16.4586 31.6051 16.5694 31.2698 16.6581C30.8674 16.7689 30.4874 16.8576 30.085 16.9463C28.8556 17.2566 27.6038 17.567 26.3744 17.9438C23.7367 18.7197 20.6743 19.7393 17.8801 21.291C17.2095 21.6679 16.5165 21.8674 15.6895 21.9339C15.1306 21.9782 14.5047 21.4906 14.3706 20.892C14.3035 20.6704 14.2588 20.4265 14.2141 20.1827C14.1247 19.695 14.013 19.1852 13.8341 18.6975C13.1859 17.0128 11.8447 15.9266 10.4588 15.0178C10.5035 14.9513 10.5258 14.9069 10.5705 14.8404C11.5094 13.3996 12.6047 12.0695 13.8565 10.8947L13.8788 10.9168ZM43.2959 19.8945C40.9711 19.1852 38.624 18.365 36.344 17.567C35.6958 17.3453 35.0475 17.1236 34.4216 16.902C33.9298 16.7246 33.9075 16.7024 33.9745 16.0374C34.131 14.5301 34.2428 12.9784 34.2875 11.471C34.3098 11.072 34.1087 10.7173 33.9298 10.407C33.8851 10.3405 33.8628 10.274 33.8181 10.2075C33.4828 9.58681 33.1475 8.96612 32.7898 8.34544L32.7227 8.23461C32.1639 7.23709 31.538 6.17308 30.9345 5.08689C38.9146 5.8849 45.956 11.1828 48.9066 18.631C48.929 18.6753 48.929 18.7197 48.9513 18.764C47.2301 20.1383 45.3301 20.5152 43.2959 19.8945ZM9.27404 17.1458C9.29639 17.1015 9.31874 17.0571 9.34109 17.035C10.2129 17.5226 11.0847 18.1433 11.5764 19.1187C11.6882 19.3625 11.7553 19.6507 11.8223 19.9389C11.867 20.1384 11.9117 20.36 11.9788 20.5595C12.1576 21.1359 12.3588 21.6901 12.5376 22.2442C12.7835 22.9757 13.0518 23.7516 13.2753 24.5053C13.4094 24.9708 13.5212 25.4363 13.6329 25.9018C13.6777 26.0791 13.7224 26.2786 13.7671 26.456C13.6777 26.8772 13.5882 27.3205 13.4988 27.7417C13.2976 28.7835 13.0965 29.7589 12.8506 30.7342C12.4259 32.5076 11.9564 34.2588 11.4423 36.1874C11.2411 36.941 11.0176 37.6947 10.8164 38.4262C8.3799 34.8795 7.10576 30.7342 7.10576 26.4116C7.15046 23.1974 7.86577 20.0718 9.27404 17.1458ZM13.8118 36.0987C14.2812 34.3918 14.7283 32.6849 15.0859 31.1997C15.1977 30.7121 15.3095 30.2466 15.4212 29.7589C15.4883 29.4042 15.5777 29.0274 15.6671 28.6505C15.7342 28.3845 15.7789 28.3402 16.0471 28.4067C17.2095 28.6505 17.9695 29.4929 18.6625 30.3131C19.3554 31.1776 20.0707 32.0643 20.7413 32.9288C21.7696 34.2366 22.8202 35.5888 23.9155 36.8524C24.6755 37.739 25.5473 38.5592 26.3744 39.3572C26.8662 39.8228 27.3579 40.2883 27.8274 40.7759C29.705 42.6823 30.5098 44.5665 30.3756 46.6946C30.3533 47.0714 30.3756 47.4482 30.4427 47.8029C30.4203 47.8029 30.3756 47.8029 30.3533 47.8029C29.8392 47.8472 29.325 47.8694 28.7885 47.8694C22.6637 47.8694 16.8071 45.2759 12.7165 40.7538C12.6494 40.6873 12.5823 40.6208 12.5153 40.5321C13.0071 38.9139 13.4318 37.4509 13.8118 36.0987Z" fill="#FFB000"/>
<path d="M52.0579 20.7587C49.8002 11.4929 40.9035 2.47084 27.8492 2.80335C14.2136 3.6457 3.90868 14.5741 5.02635 28.628C5.58519 35.7437 9.02761 41.485 14.8171 45.7411C20.2937 49.7755 26.508 51.1055 33.1469 49.8863C39.0929 48.8001 44.1224 45.8519 47.8107 41.0195C52.4379 34.99 53.8685 28.1404 52.0579 20.7587ZM30.8669 4.73189C39.2718 5.52991 46.3131 11.0052 49.2637 18.5198C49.3084 18.6528 49.3531 18.7859 49.4202 18.8967C47.6096 20.4262 45.486 20.9582 43.1836 20.2489C40.1882 19.34 37.2599 18.276 34.2869 17.2563C33.5493 17.0125 33.5046 16.7465 33.594 15.9928C33.7505 14.4854 33.8622 12.9781 33.9069 11.4485C33.9293 11.0939 33.661 10.717 33.4822 10.3623C33.1469 9.69733 32.7669 9.05449 32.4093 8.41164C31.7163 7.17028 31.001 5.95109 30.2857 4.70973C30.2633 4.68756 30.2633 4.6654 30.241 4.64323C30.4645 4.68757 30.6657 4.70972 30.8669 4.73189ZM10.2347 14.6849C11.1959 13.2219 12.3136 11.8697 13.5877 10.6727C14.7054 9.58649 15.9572 8.63331 17.3431 7.81313C17.4101 7.76879 17.4995 7.72445 17.5666 7.68012C17.589 7.65795 17.6113 7.65796 17.6337 7.63579C20.629 5.88459 24.0938 4.82056 27.7821 4.66539C28.0056 4.66539 28.2068 4.64323 28.4304 4.64323C28.4527 4.6654 28.4751 4.68756 28.4974 4.73189C29.6821 6.63826 30.8445 8.5668 31.8728 10.5618C32.2975 11.4042 32.3646 12.4461 32.5434 13.1997C32.3646 14.4189 32.2304 15.3721 32.0963 16.3475C32.0293 16.7908 31.7834 16.9903 31.3587 17.1011C29.7269 17.5223 28.0951 17.8992 26.4856 18.3868C23.5797 19.2514 20.7184 20.2267 18.0807 21.7119C17.3207 22.1331 16.5607 22.3326 15.7336 22.3991C14.9736 22.4656 14.1912 21.8449 14.0124 21.0691C13.8336 20.3597 13.7442 19.606 13.4759 18.9188C12.85 17.3006 11.5535 16.281 10.1453 15.3499C10.0782 15.3056 10.0112 15.2613 9.9441 15.2169C10.0335 14.9953 10.1229 14.8401 10.2347 14.6849ZM10.9947 39.3126C10.8829 39.1574 10.7712 39.0023 10.6594 38.8471C8.20053 35.3225 6.74756 31.0443 6.74756 26.4557C6.74756 23.0641 7.52993 19.8499 8.9382 16.9903C9.02761 16.8351 9.09467 16.68 9.18408 16.5026C10.2794 17.1012 11.3524 17.7883 11.9336 18.941C12.1571 19.4065 12.2018 19.9607 12.3583 20.4484C12.783 21.7784 13.2524 23.0863 13.6771 24.4163C13.9007 25.1035 14.0348 25.7907 14.1912 26.5C13.8783 27.9852 13.6101 29.4482 13.2748 30.8669C12.85 32.6846 12.3583 34.5245 11.8665 36.3422C11.5982 37.3176 11.2853 38.3151 10.9947 39.3126ZM30.3527 48.2238C29.8163 48.2681 29.3021 48.2903 28.7657 48.2903C22.2832 48.2903 16.4266 45.4972 12.403 41.0416C12.2912 40.9086 12.1794 40.7978 12.0677 40.6648C12.5371 39.1131 13.0065 37.5614 13.4312 36.0097C13.8783 34.3915 14.303 32.7511 14.7054 31.1108C14.9066 30.2684 15.0854 29.4261 15.2642 28.5837C15.376 28.1625 15.5995 27.9409 16.0913 28.0517C17.3431 28.3177 18.1701 29.1822 18.9302 30.0911C20.6961 32.2635 22.3502 34.5023 24.1609 36.6304C25.3456 38.0269 26.7762 39.2239 28.0727 40.554C29.7716 42.283 30.8892 44.2337 30.7328 46.7608C30.7104 47.2263 30.7775 47.7139 30.8445 48.2016C30.7104 48.2016 30.5316 48.2016 30.3527 48.2238ZM42.2 43.7239C39.4729 45.8076 36.2317 47.2928 32.6999 47.9134C32.5657 47.9356 32.4093 47.9578 32.2751 47.9799C32.2304 47.6918 32.2081 47.4258 32.1857 47.1376C32.1634 46.9159 32.1857 46.6721 32.1857 46.4504C32.1634 46.4504 32.1634 46.4504 32.141 46.4504C32.2304 45.5637 32.2975 44.677 32.4316 43.8125C32.454 43.6352 32.7893 43.3913 32.9905 43.3692C34.2646 43.2362 35.5387 43.1697 36.8129 43.081C37.4388 43.0367 38.087 43.0145 38.7129 42.9037C40.0765 42.6598 41.3059 42.9923 42.5353 43.4579C42.4236 43.5687 42.3118 43.6574 42.2 43.7239ZM44.1224 42.0835C44.0107 42.1943 43.8765 42.3052 43.7648 42.4382C42.1777 41.5737 40.4118 41.3076 38.5564 41.485C36.947 41.6401 35.3376 41.7288 33.7058 41.8397C33.5046 41.8618 33.3034 41.8397 33.1246 41.884C32.3198 42.1057 31.6492 41.8618 31.0681 41.3298C29.3916 39.7781 27.6256 38.2707 26.0609 36.6082C24.7197 35.1895 23.6244 33.5713 22.3726 32.0861C21.0537 30.5344 19.6455 29.0714 18.3266 27.5419C18.0137 27.1872 17.8572 26.6773 17.7007 26.4113C17.969 24.239 18.9302 22.6873 20.7631 21.9557C23.1997 20.9804 25.7256 20.2045 28.2292 19.3844C29.3468 19.0297 30.5092 18.8745 31.6045 18.4977C32.3869 18.2317 33.0352 18.4533 33.7058 18.6972C36.6117 19.6725 39.4953 20.6922 42.4236 21.6454C44.8825 22.4434 47.2519 22.1996 49.4425 20.7144C49.6214 20.6036 49.7555 20.4927 49.8896 20.4262C49.9343 20.6035 49.979 20.7809 50.0461 20.9361C50.5155 22.7094 50.7837 24.5936 50.7837 26.5222C50.7837 32.5738 48.2355 38.1156 44.1224 42.0835Z" fill="#FFB000"/>
</svg>
